<svg xmlns="http://www.w3.org/2000/svg" viewBox="0 0 16 16">
<path transform="scale(.03125)" d="M55.3 350.0V130.1H117.32000000000001L154.56 280.1L191.38000000000002 130.1H253.54000000000002V350.0H215.04000000000002V176.9L174.3 350.0H134.4L93.80000000000001 176.9V350.0Z M374.18000000000006 269.15V232.10000000000002H463.50000000000006V319.7Q450.48 333.2 425.77000000000004 343.475Q401.06000000000006 353.75 375.72 353.75Q343.52000000000004 353.75 319.58000000000004 339.275Q295.64000000000004 324.8 283.6 297.875Q271.56000000000006 270.95 271.56000000000006 239.3Q271.56000000000006 204.95000000000002 285.00000000000006 178.25Q298.44000000000005 151.55 324.34000000000003 137.3Q344.08000000000004 126.35 373.48 126.35Q411.70000000000005 126.35 433.19000000000005 143.525Q454.68000000000006 160.70000000000002 460.84000000000003 191.0L419.68000000000006 199.25Q415.34000000000003 183.05 403.37 173.675Q391.40000000000003 164.3 373.48 164.3Q346.32000000000005 164.3 330.2900000000001 182.75Q314.26000000000005 201.20000000000002 314.26000000000005 237.5Q314.26000000000005 276.65 330.5 296.225Q346.74 315.8 373.06000000000006 315.8Q386.08000000000004 315.8 399.1700000000001 310.32500000000005Q412.26000000000005 304.85 421.64000000000004 297.05V269.15Z M360 380h100v20H360z" fill="#000000"/>
</svg>
